<?xml version="1.0" standalone="no"?>
<!DOCTYPE svg PUBLIC "-//W3C//DTD SVG 20010904//EN"
 "http://www.w3.org/TR/2001/REC-SVG-20010904/DTD/svg10.dtd">
<svg version="1.0" xmlns="http://www.w3.org/2000/svg"
 width="225.000000pt" height="225.000000pt" viewBox="0 0 225.000000 225.000000"
 preserveAspectRatio="xMidYMid meet">

<g transform="translate(0.000000,225.000000) scale(0.100000,-0.100000)"
fill="#000000" stroke="none">
<path d="M0 1125 l0 -1125 1125 0 1125 0 0 1125 0 1125 -1125 0 -1125 0 0
-1125z m1235 854 c116 -43 243 -145 290 -232 15 -29 26 -36 59 -41 105 -16
211 -99 263 -204 25 -50 28 -68 28 -152 0 -115 -19 -163 -95 -244 -73 -77
-150 -110 -255 -110 -51 0 -97 6 -127 17 l-47 18 -54 -31 c-106 -60 -190 -82
-332 -87 -158 -6 -230 8 -360 72 -64 30 -113 64 -163 110 -85 79 -94 113 -35
144 30 15 26 17 85 -36 139 -123 269 -175 438 -176 74 -1 123 4 165 17 66 19
165 67 203 97 32 25 56 24 111 -3 35 -17 64 -23 117 -23 61 0 77 4 120 30 70
44 107 108 112 195 3 56 0 74 -21 117 -41 80 -117 133 -191 133 -55 0 -78 17
-116 82 -92 160 -288 251 -468 219 -264 -47 -414 -290 -284 -459 l18 -24 54
102 c72 136 85 152 124 148 28 -3 35 -11 72 -82 l42 -80 32 65 c18 35 39 72
48 82 22 25 68 22 86 -5 44 -71 156 -295 156 -314 0 -33 -27 -56 -64 -52 -26
3 -35 11 -60 58 -16 30 -40 75 -54 99 l-25 45 -39 -77 c-29 -59 -44 -78 -65
-83 -37 -10 -53 4 -93 78 -19 37 -38 70 -42 73 -4 4 -21 -21 -39 -56 -57 -115
-76 -139 -108 -139 -48 0 -139 78 -177 151 -25 50 -36 131 -25 199 26 162 143
295 316 360 113 42 286 42 400 -1z m-227 -1232 c4 -20 -25 -34 -40 -19 -15 15
-1 44 19 40 10 -2 19 -11 21 -21z m-623 -55 l31 -63 29 63 c25 53 34 63 55 63
25 0 25 -1 28 -97 l3 -98 -26 0 c-23 0 -25 4 -26 48 l-1 47 -20 -45 c-34 -75
-48 -74 -84 4 l-24 51 0 -52 c0 -50 -2 -53 -25 -53 -25 0 -25 1 -25 84 0 100
5 118 34 114 15 -2 30 -22 51 -66z m459 6 l46 -62 0 62 c0 59 1 62 25 62 25 0
25 0 25 -94 0 -75 -3 -96 -16 -107 -15 -12 -21 -9 -48 25 -17 22 -41 51 -53
65 l-22 26 -1 -61 c0 -60 -1 -61 -25 -56 -24 4 -25 7 -25 87 0 46 3 90 6 99
12 32 42 16 88 -46z m937 0 c0 -47 3 -57 9 -41 32 80 150 57 150 -30 0 -34
-40 -77 -72 -77 -30 0 -67 26 -78 54 -8 18 -9 17 -9 -11 -1 -28 -5 -33 -25
-33 -13 0 -37 -3 -54 -6 -26 -5 -36 -1 -63 25 -25 25 -30 37 -25 59 10 41 53
75 88 68 26 -5 28 -3 28 24 0 25 4 30 25 30 24 0 25 -3 26 -62z m-521 22 c0
-11 7 -20 15 -20 8 0 15 -7 15 -15 0 -8 -7 -15 -15 -15 -12 0 -15 -13 -15 -55
0 -52 -1 -55 -25 -55 -24 0 -25 3 -25 56 0 34 -4 53 -10 49 -5 -3 -10 3 -10
14 0 12 5 21 10 21 6 0 10 9 10 20 0 15 7 20 25 20 18 0 25 -5 25 -20z m-106
-31 c22 -17 26 -28 26 -74 0 -44 -3 -53 -20 -58 -18 -5 -20 0 -20 36 0 51 -11
70 -36 65 -15 -2 -20 -14 -22 -51 -3 -42 -5 -47 -28 -47 -23 0 -24 2 -24 69
l0 70 38 4 c20 2 42 4 48 5 6 1 23 -7 38 -19z m262 -4 c16 -16 24 -34 22 -48
-3 -19 -10 -22 -51 -25 -27 -2 -45 -7 -42 -13 4 -5 24 -6 46 -3 25 4 39 3 39
-4 0 -16 -41 -42 -68 -42 -33 0 -72 43 -72 80 0 38 39 80 75 80 14 0 37 -11
51 -25z m164 5 c15 -15 20 -33 20 -75 0 -48 -3 -55 -19 -55 -17 0 -20 8 -23
48 -3 43 -5 47 -28 47 -23 0 -25 -4 -28 -47 -3 -43 -5 -48 -28 -48 -23 0 -24
2 -24 69 l0 70 38 4 c20 2 45 4 55 5 9 1 26 -7 37 -18z m-970 -32 l13 -43 15
43 c13 33 21 42 39 42 13 0 23 -4 23 -8 0 -4 -17 -48 -38 -98 -36 -83 -40 -89
-70 -92 -24 -3 -32 1 -32 13 0 9 9 19 20 22 27 7 25 19 -10 97 l-29 66 28 0
c24 0 30 -6 41 -42z m400 -28 c0 -68 -1 -70 -25 -70 -24 0 -25 2 -25 70 0 68
1 70 25 70 24 0 25 -2 25 -70z m1010 -57 c0 -17 -40 -17 -41 0 0 10 -2 10 -6
0 -7 -18 -20 -16 -20 2 0 10 11 14 34 13 20 -1 33 -6 33 -15z m-1095 -139 l20
-15 -20 -12 c-11 -6 -32 -10 -47 -8 -42 4 -34 -17 13 -35 47 -20 64 -51 47
-89 -18 -41 -84 -50 -121 -17 -17 15 -17 17 -1 29 9 7 29 9 45 6 42 -8 36 13
-10 36 -21 11 -41 30 -44 42 -6 23 7 58 27 71 19 13 70 8 91 -8z m95 -24 c0
-11 7 -20 15 -20 8 0 15 -9 15 -20 0 -11 -7 -20 -15 -20 -12 0 -15 -13 -15
-55 0 -52 -1 -55 -25 -55 -23 0 -25 3 -25 51 0 37 -5 56 -17 65 -17 13 -17 15
0 28 9 7 17 21 17 30 0 10 8 16 25 16 18 0 25 -5 25 -20z m160 -40 c12 -12 20
-33 20 -55 0 -46 -29 -75 -75 -75 -45 0 -75 29 -75 72 0 67 84 104 130 58z
m120 1 c0 -9 -9 -22 -20 -29 -15 -9 -20 -23 -20 -57 0 -41 -2 -45 -25 -45 -24
0 -25 2 -25 75 l0 74 45 -1 c35 0 45 -4 45 -17z m130 -3 c11 -12 20 -32 20
-45 0 -21 -4 -23 -56 -23 -38 0 -53 -3 -48 -11 4 -7 21 -9 45 -5 44 7 62 -10
34 -31 -48 -35 -125 2 -125 61 0 66 85 102 130 54z"/>
<path d="M1670 655 c-26 -31 13 -82 44 -56 22 18 20 48 -3 61 -25 13 -26 13
-41 -5z"/>
<path d="M1845 656 c-20 -15 -17 -44 7 -59 12 -8 21 -7 32 2 36 30 -1 85 -39
57z"/>
<path d="M1345 660 c-4 -6 5 -10 20 -10 15 0 24 4 20 10 -3 6 -12 10 -20 10
-8 0 -17 -4 -20 -10z"/>
<path d="M1101 336 c-19 -23 -4 -56 25 -56 28 0 42 25 27 49 -14 22 -37 25
-52 7z"/>
<path d="M1345 340 c-4 -6 8 -10 30 -10 22 0 34 4 30 10 -3 6 -17 10 -30 10
-13 0 -27 -4 -30 -10z"/>
</g>
</svg>
