<?xml version="1.0" standalone="no"?>
<!DOCTYPE svg PUBLIC "-//W3C//DTD SVG 20010904//EN"
 "http://www.w3.org/TR/2001/REC-SVG-20010904/DTD/svg10.dtd">
<svg version="1.0" xmlns="http://www.w3.org/2000/svg"
 width="300.000000pt" height="168.000000pt" viewBox="0 0 300.000000 168.000000"
 preserveAspectRatio="xMidYMid meet">

<g transform="translate(0.000000,168.000000) scale(0.100000,-0.100000)"
fill="#000000" stroke="none">
<path d="M280 1171 c-87 -27 -155 -87 -194 -170 -18 -39 -21 -65 -21 -166 0
-111 2 -124 27 -171 35 -67 107 -130 171 -149 44 -13 213 -15 1237 -15 1363 0
1257 -7 1352 90 69 71 88 124 88 251 0 124 -20 180 -90 251 -95 95 11 88
-1354 87 -655 0 -1202 -4 -1216 -8z m2472 -50 c107 -46 164 -157 156 -305 -7
-128 -58 -214 -153 -257 -38 -18 -100 -19 -1255 -19 -1374 0 -1255 -7 -1336
82 -56 60 -69 103 -69 223 0 84 4 108 24 147 26 55 95 120 143 135 22 8 425
11 1240 12 1155 1 1208 0 1250 -18z"/>
<path d="M320 860 l0 -160 45 0 45 0 0 115 c0 70 4 115 10 115 5 0 44 -52 86
-115 76 -113 78 -115 116 -115 l38 0 0 160 0 160 -40 0 -40 0 0 -99 c0 -55 -4
-102 -10 -106 -5 -3 -41 42 -80 100 l-70 105 -50 0 -50 0 0 -160z"/>
<path d="M740 990 c0 -29 2 -30 45 -30 43 0 45 1 45 30 0 29 -2 30 -45 30 -43
0 -45 -1 -45 -30z"/>
<path d="M2290 964 c0 -49 -2 -55 -17 -49 -71 27 -138 10 -159 -41 -31 -74 -8
-155 51 -174 22 -7 50 -9 73 -4 20 4 61 6 90 5 l52 -3 0 161 0 161 -45 0 -45
0 0 -56z m-12 -86 c7 -7 12 -37 12 -68 0 -60 -11 -80 -45 -80 -34 0 -45 20
-45 80 0 60 11 80 45 80 12 0 26 -5 33 -12z"/>
<path d="M2710 973 c0 -7 4 -13 9 -13 5 0 11 6 14 13 3 8 -1 14 -9 14 -8 0
-14 -6 -14 -14z"/>
<path d="M1274 965 c-4 -9 -19 -15 -35 -15 -19 0 -29 -5 -29 -15 0 -10 10 -15
30 -15 l30 0 0 -110 0 -110 45 0 45 0 0 110 0 110 36 0 c45 0 42 24 -4 28 -20
2 -32 9 -32 18 0 20 -79 19 -86 -1z"/>
<path d="M2690 961 c0 -6 4 -13 10 -16 6 -3 7 1 4 9 -7 18 -14 21 -14 7z"/>
<path d="M2746 953 c-6 -14 -5 -15 5 -6 7 7 10 15 7 18 -3 3 -9 -2 -12 -12z"/>
<path d="M1023 915 c-18 -8 -33 -10 -33 -5 0 6 -20 10 -45 10 l-45 0 0 -110 0
-110 45 0 45 0 0 78 c0 85 14 112 58 112 40 0 52 -25 52 -111 l0 -79 45 0 45
0 0 90 c0 83 -2 93 -25 115 -28 29 -89 33 -142 10z"/>
<path d="M1484 911 c-72 -44 -85 -109 -31 -167 65 -72 205 -62 247 17 10 18 7
19 -40 19 -41 0 -50 -3 -50 -18 0 -25 -19 -42 -47 -42 -25 0 -43 26 -43 64 l0
26 95 0 c93 0 95 0 95 24 0 28 -39 72 -75 86 -43 16 -117 12 -151 -9z m107
-11 c11 -6 19 -21 19 -36 0 -23 -3 -25 -42 -22 -48 3 -61 24 -33 52 19 19 29
20 56 6z"/>
<path d="M1878 914 c-16 -8 -28 -10 -28 -4 0 5 -20 10 -45 10 l-45 0 0 -110 0
-110 45 0 45 0 0 78 c0 85 14 112 58 112 40 0 52 -25 52 -111 l0 -79 45 0 45
0 0 94 c0 90 -1 96 -26 115 -32 25 -105 28 -146 5z"/>
<path d="M2493 914 c-82 -41 -89 -146 -12 -193 72 -44 156 -34 208 24 52 59
35 132 -39 170 -38 19 -116 19 -157 -1z m109 -21 c13 -12 18 -31 18 -75 0 -70
-12 -98 -43 -98 -38 0 -47 19 -47 95 0 91 26 120 72 78z"/>
<path d="M740 810 l0 -110 45 0 45 0 0 110 0 110 -45 0 -45 0 0 -110z"/>
</g>
</svg>
