<?xml version="1.0" standalone="no"?>
<!DOCTYPE svg PUBLIC "-//W3C//DTD SVG 20010904//EN"
 "http://www.w3.org/TR/2001/REC-SVG-20010904/DTD/svg10.dtd">
<svg version="1.0" xmlns="http://www.w3.org/2000/svg"
 width="259.000000pt" height="194.000000pt" viewBox="0 0 259.000000 194.000000"
 preserveAspectRatio="xMidYMid meet">

<g transform="translate(0.000000,194.000000) scale(0.100000,-0.100000)"
fill="#000000" stroke="none">
<path d="M1456 1573 c-4 -4 -31 -10 -59 -13 l-52 -5 -3 -527 -2 -528 26 -6
c37 -9 167 3 207 19 52 22 98 68 123 122 24 50 24 53 24 420 0 338 -2 373 -19
410 -22 48 -54 79 -103 100 -38 15 -129 21 -142 8z m79 -34 c53 -13 119 -67
146 -120 19 -38 20 -56 17 -403 l-3 -363 -29 -42 c-36 -52 -96 -88 -156 -95
l-45 -6 40 11 c53 13 100 46 133 93 l27 39 3 346 c3 391 1 404 -69 464 -48 41
-97 57 -178 57 -48 0 -61 3 -61 15 0 12 14 15 66 15 36 0 85 -5 109 -11z m21
-552 c30 -26 37 -74 14 -102 -17 -21 -24 -12 -10 15 21 38 -11 90 -56 90 -14
0 -22 4 -19 10 11 17 43 11 71 -13z"/>
<path d="M984 1426 c-54 -28 -84 -61 -102 -115 -17 -47 -17 -728 0 -782 15
-51 70 -114 122 -141 31 -17 64 -23 139 -26 151 -7 137 -62 137 532 0 292 -4
507 -10 516 -8 13 -28 17 -190 36 -35 4 -56 0 -96 -20z m246 -532 l0 -516 -98
4 c-88 3 -103 6 -140 31 -23 15 -54 46 -69 69 l-28 42 -3 355 c-3 399 -1 413
65 472 55 47 89 58 186 59 l87 0 0 -516z"/>
<path d="M1135 1340 c-3 -5 0 -13 9 -16 21 -8 61 -1 61 11 0 14 -62 19 -70 5z"/>
<path d="M1027 1219 c-11 -6 -25 -26 -33 -45 -32 -76 44 -152 120 -120 93 39
68 176 -31 176 -21 0 -46 -5 -56 -11z m61 -16 c-27 -4 -68 -45 -68 -67 0 -6 7
-24 16 -41 l15 -30 -22 22 c-48 47 -17 124 50 122 30 -2 31 -3 9 -6z"/>
<path d="M1050 896 c-6 -8 -10 -25 -8 -38 2 -18 10 -24 35 -26 28 -3 33 1 39
23 11 45 -37 75 -66 41z"/>
<path d="M982 828 c-30 -30 0 -75 43 -64 19 5 25 13 25 35 0 38 -41 56 -68 29z"/>
<path d="M1114 826 c-12 -32 0 -61 28 -64 34 -4 54 27 38 58 -12 23 -58 27
-66 6z"/>
<path d="M1044 746 c-12 -49 43 -76 70 -33 15 24 -3 51 -37 55 -21 3 -28 -2
-33 -22z"/>
<path d="M1110 610 c0 -25 4 -30 25 -30 21 0 25 5 25 30 0 25 -4 30 -25 30
-21 0 -25 -5 -25 -30z"/>
<path d="M950 580 c0 -33 25 -83 54 -107 41 -36 52 -27 13 10 -21 19 -40 50
-46 75 -13 45 -21 54 -21 22z"/>
</g>
</svg>
